inDegrees=no
num_controls=7
num_derivatives=13
num_iterations=48
num_multipliers=7
num_parameters=0
num_slacks=7
num_states=26
objective=0.471502
objective_accelerations=0.063426
objective_balance=0.001021
objective_effort=0.017681
objective_height=0.380223
objective_ligament=0.009150
solver_duration=699.732068
status=Solve_Succeeded
success=true
DataType=double
version=3
OpenSimVersion=4.5
endheader
time	/jointset/ground_pelvis/pelvis_tilt/value	/jointset/ground_pelvis/pelvis_tx/value	/jointset/ground_pelvis/pelvis_ty/value	/jointset/hip_l/hip_flexion_l/value	/jointset/hip_l/hip_adduction_l/value	/jointset/hip_l/hip_rotation_l/value	/jointset/back/lumbar_extension/value	/jointset/patellofemoral_l/patellar_flexion_l/value	/jointset/knee_l/knee_flexion_l/value	/jointset/knee_l/knee_adduction_l/value	/jointset/knee_l/knee_rotation_l/value	/jointset/ankle_l/ankle_angle_l/value	/jointset/subtalar_l/subtalar_angle_l/value	/jointset/ground_pelvis/pelvis_tilt/speed	/jointset/ground_pelvis/pelvis_tx/speed	/jointset/ground_pelvis/pelvis_ty/speed	/jointset/hip_l/hip_flexion_l/speed	/jointset/hip_l/hip_adduction_l/speed	/jointset/hip_l/hip_rotation_l/speed	/jointset/back/lumbar_extension/speed	/jointset/patellofemoral_l/patellar_flexion_l/speed	/jointset/knee_l/knee_flexion_l/speed	/jointset/knee_l/knee_adduction_l/speed	/jointset/knee_l/knee_rotation_l/speed	/jointset/ankle_l/ankle_angle_l/speed	/jointset/subtalar_l/subtalar_angle_l/speed	/forceset/tau_hip_flexion_l	/forceset/tau_hip_adduction_l	/forceset/tau_hip_rotation_l	/forceset/tau_knee_flexion_l	/forceset/tau_ankle_angle_l	/forceset/tau_subtalar_angle_l	/forceset/tau_lumbar_extension	lambda_cid13_p0	lambda_cid13_p1	lambda_cid13_p2	lambda_cid13_p3	lambda_cid13_p4	lambda_cid13_p5	lambda_cid14_p0	/jointset/ground_pelvis/pelvis_tilt/accel	/jointset/ground_pelvis/pelvis_tx/accel	/jointset/ground_pelvis/pelvis_ty/accel	/jointset/hip_l/hip_flexion_l/accel	/jointset/hip_l/hip_adduction_l/accel	/jointset/hip_l/hip_rotation_l/accel	/jointset/back/lumbar_extension/accel	/jointset/patellofemoral_l/patellar_flexion_l/accel	/jointset/knee_l/knee_flexion_l/accel	/jointset/knee_l/knee_adduction_l/accel	/jointset/knee_l/knee_rotation_l/accel	/jointset/ankle_l/ankle_angle_l/accel	/jointset/subtalar_l/subtalar_angle_l/accel	gamma_cid13_p0	gamma_cid13_p1	gamma_cid13_p2	gamma_cid13_p3	gamma_cid13_p4	gamma_cid13_p5	gamma_cid14_p0
0	0.05152258540939949	0.1061965933869553	0.9041328517024154	0.1266922784136757	-0.3593731046432845	-0.235368095370053	-0.2144969558742783	0.2051545070141687	0.2051545070141877	-0.1522894596283163	-0.1650351403085744	0.09024313228550125	0.09073077314034346	0	0	0	0	0	0	0	0	0	0	0	0	0	0.126398216698771	-0.03543863416041336	-0.01055718359648024	-0.2529971702854957	0.1832087198778519	-0.09759431500308596	-0.05830510543280598	26.48997652092622	39.18643652133557	-8.172573551737877	-9.93359979991563	-443.7227941767968	-35.66833239758776	-26.24836451812858	-4.7920186644239	-1.591529147906818	-0.8968615561057438	12.7711895221393	-0.3178109375333606	2.89451499665549	-3.894996872229139	9.106291334762837	9.106291334762156	1.665969897570997	-0.6934869522784739	1.870521014138497	0.1987596356388341	2.804356511767327e-10	3.303196992048434e-07	6.787788831777944e-08	-8.574402313239547e-09	9.166482240606805e-08	4.50899602903628e-08	1.777888439177623e-08
0.01	0.0512886294588908	0.1061172363131274	0.9040895140585243	0.1273156035520402	-0.3593861164172713	-0.2352208552382851	-0.2146941902263418	0.2055933656275925	0.2055933656276463	-0.1522050184069842	-0.1650603146048386	0.09033041814080756	0.09074187389345853	-0.0469133651487624	-0.01588133324402427	-0.008617322248450335	0.1243108614309181	-0.002390582098544921	0.02914936077562131	-0.03899062569785133	0.08685994866826134	0.08685994866825027	0.01707045290181477	-0.004902772661086107	0.01702011221585302	0.002318668497718629	0.1233070716613022	-0.04299107856302277	-0.009824778649298449	-0.2483444499961268	0.1728017418931284	-0.08764369466205982	-0.0558172818782414	23.6330826247198	35.01982014996582	-7.113903627049671	-7.839239580119362	-445.5392588107669	-44.12494888619609	-26.24853719600851	-4.659330913014613	-1.587924901203134	-0.8366182467164611	12.20790165350749	-0.1679787817075041	2.880347753384927	-3.832658710758173	8.339076974241133	8.339076974240001	1.754977937631603	-0.3688561783128942	1.552208308970921	0.2631379164855822	-1.05596813694643e-08	4.585754461312607e-07	-4.558730962185576e-09	3.623655828207781e-08	-1.217115054387139e-07	9.980742227797159e-08	5.240598408318117e-08
0.02	0.05058187276230005	0.1058787680091473	0.903961513054649	0.129171410744679	-0.3594166933993906	-0.2347910812716754	-0.2152676434938225	0.2068734697959927	0.2068734697960042	-0.1519443936663641	-0.1651305533787449	0.09057479551500985	0.09077910482348026	-0.09456014921394068	-0.03182224603044139	-0.01693267199686042	0.2464964108594144	-0.003513041624799228	0.05650676696604193	-0.0752437830834469	0.1682491109918402	0.1682491109918257	0.03523670384941555	-0.009012895533722559	0.03141830377817605	0.005226035381310885	0.1202159266236165	-0.05054352296562457	-0.009092373702247913	-0.2436917297069626	0.1623947639083215	-0.0776930743210489	-0.05332945832374498	20.81582859884668	30.8555315148408	-6.066192817346912	-5.739998294583248	-446.6180873508034	-52.427576786678	-26.24858030426807	-4.938702447706536	-1.60344505638607	-0.8364670560976676	12.34612712165519	-0.06418642307524065	2.536124079615344	-3.347503209777785	8.012134065826304	8.012134065827148	1.885129506728228	-0.5349569945886128	1.346136883431633	0.3164993128132864	-2.139979839010533e-08	5.868311930576781e-07	-7.699535024215059e-08	8.104751887739517e-08	-3.350878332834959e-07	1.545248842655804e-07	8.703308377458611e-08
0.03	0.04939859937938716	0.1054813215051078	0.9037512124549353	0.1322378804103064	-0.3594548681255498	-0.2340951172899105	-0.2161918108623413	0.2089484919655986	0.2089484919656113	-0.1515000622865571	-0.1652403483849361	0.09095487369810443	0.09084688434870741	-0.1417939387536583	-0.04760110991951243	-0.02513373314399705	0.3662709721300307	-0.004189915248894133	0.08265684013390885	-0.1093824954903912	0.246593688293819	0.2465936882938098	0.05342240046170342	-0.01292314193306583	0.04461515785625503	0.008262269233962807	0.1157827746024175	-0.04611206560573015	-0.008295681551507974	-0.2386625663462203	0.157228643416055	-0.07926208714082983	-0.05003506822943865	19.13001083384858	31.67603527205257	-6.018707324409791	-4.978546356260418	-445.6750544070158	-49.79689552609174	-26.24796039081064	-4.57062149636638	-1.555198937842586	-0.8129363033821335	11.71413967946778	-0.07971540496720979	2.65010119624209	-3.415975986145783	7.721356820079465	7.721356820079573	1.754306478189349	-0.3156411256964424	1.309150109709773	0.2869625724332188	-2.508810760842028e-08	6.565408737004648e-07	-4.823497584541857e-08	8.483515343847718e-08	-4.156493924414678e-07	1.389026436160121e-07	9.425532372798449e-08
0.04	0.04775200724322473	0.104928067985641	0.9034586991118833	0.136486299498576	-0.3595018671025417	-0.2331385221242761	-0.2174511495009163	0.2118021073597903	0.2118021073598109	-0.1508800705926018	-0.1653885623877216	0.09146745850993698	0.09094298164264933	-0.1872238998638873	-0.06298364911591277	-0.03337522066451772	0.482886295388731	-0.005277891788626349	0.1086330037365984	-0.1422780370970017	0.3239677559036465	0.3239677559036386	0.07036876666236702	-0.01669669485596658	0.05791962952288282	0.01088958912427059	0.1113496225813587	-0.04168060824597173	-0.007498989400722459	-0.2336334029853018	0.1520625229238359	-0.08083109996074343	-0.04674067813506717	17.47918597798275	32.50049513309246	-5.983370883576193	-4.202034108767058	-444.0682456954068	-47.01761917196834	-26.24623979478273	-4.577936761808452	-1.524180117852617	-0.8445523307744477	11.71427951927217	-0.1464070062026944	2.501342166579894	-3.098869049710931	7.818032127396025	7.818032127396075	1.637263424403415	-0.5076182993001578	1.367660401140539	0.2347165203441914	-2.862895687204808e-08	7.250434189559602e-07	-1.73880654965897e-08	8.777694622565743e-08	-4.934725027605365e-07	1.218300998192855e-07	1.00912515026991e-07
0.05	0.04565884834830189	0.1042229229590428	0.9030835522529266	0.1418851359607754	-0.3595607793578635	-0.231924918517254	-0.2190326147778451	0.2154219803347791	0.2154219803348362	-0.1500955457247036	-0.1655741548667213	0.09211225443279521	0.09106401892033782	-0.2311803394996572	-0.07798185798221215	-0.04165406417930639	0.5962730321059204	-0.006466634986270673	0.1339668403626112	-0.1738037532188915	0.3995285869505089	0.3995285869505057	0.08644607121096429	-0.02031904479539364	0.07091005826555838	0.01332112703118855	0.1071830395955137	-0.04010974363583202	-0.006712018893085793	-0.2297948175641658	0.147231203695504	-0.07966573242696814	-0.043639964385713	16.0579339465603	32.11025019891515	-5.769263353776963	-3.565336872698085	-443.2104088956236	-46.93097603369416	-26.24291787077632	-4.270358804587546	-1.478098960431028	-0.8196366430148185	11.05967576829913	-0.09952502609473535	2.531298916511154	-3.147733132187718	7.35335053495768	7.353350534958408	1.579566798000854	-0.2741499050862465	1.245332272347772	0.2477495824512403	-3.050894041968775e-08	7.136109632340141e-07	-3.949870072598944e-08	9.338778794883204e-08	-5.717065965318901e-07	1.239312066389e-07	1.064500773209423e-07
0.06	0.04313295280898699	0.1033697043058979	0.9026255997025875	0.1483996007941849	-0.3596304624550782	-0.2304615976427717	-0.2209229992637449	0.2197831100085892	0.2197831100086089	-0.1491529272456616	-0.1657928921578512	0.09288307427539329	0.09120944700841258	-0.273771228740439	-0.09259837442525945	-0.04993635894102247	0.7060119696373749	-0.007432060165898577	0.1585764572246166	-0.2040618788911153	0.4722190956624213	0.4722190956624248	0.101987488876061	-0.02332565728769393	0.08312441346889228	0.01576775120151537	0.1030164566093566	-0.03853887902574721	-0.005925048385574411	-0.225956232143189	0.1423998844671036	-0.07850036489327129	-0.04053925063654446	14.66852694073955	31.7231694522442	-5.56564425804117	-2.916136293685225	-441.7531714002637	-46.70833770664218	-26.23708371939824	-4.304826682810433	-1.447841633202847	-0.8452425801599022	10.98471968212531	-0.1017434025994121	2.356498213778457	-2.845350959777533	7.243967660405986	7.243967660406404	1.530086047703338	-0.3844708098748137	1.212445693271394	0.2377337730257107	-3.231899277928582e-08	6.988128232603863e-07	-6.383912734815671e-08	9.911101067983798e-08	-6.499579948696555e-07	1.268396250634132e-07	1.119404973409966e-07
0.07000000000000001	0.04018642004000505	0.1023722030445086	0.9020843899867798	0.1559962561913024	-0.3597092498235447	-0.2287567215288396	-0.2231078582230026	0.2248593243220273	0.2248593243220948	-0.148058113222699	-0.1660405821966323	0.09377295298478154	0.0913790612778449	-0.3153933315594011	-0.106837417109844	-0.05833747692556059	0.8128876115780322	-0.008341068852031423	0.1823062344927553	-0.2325921836942872	0.5427023963582073	0.5427023963582148	0.11680652692768	-0.02615759451369526	0.09477447810073066	0.0181161435760397	0.09836292463601289	-0.03662250980646524	-0.005044448096295896	-0.2220033253276319	0.1376232631506118	-0.0774176669829693	-0.03714362933550925	13.30249194492365	31.37421038535433	-5.37531038135566	-2.367940330619269	-440.1736322146919	-46.29578126257663	-26.22783086804041	-4.069590311526328	-1.402246584766163	-0.8424612533857979	10.47426406462328	-0.08791953248217171	2.367370939554859	-2.809210849841882	6.902283219045914	6.902283219046288	1.432607616249653	-0.2243690946991842	1.129781038584796	0.2274469097266716	-3.187097967830642e-08	6.172074921188592e-07	-7.012224587660455e-08	9.429690733137964e-08	-6.560711071048796e-07	1.096549215245321e-07	1.045664692334482e-07
0.08	0.0368279285968031	0.1012342491565364	0.9014581861219704	0.1646487235307014	-0.3597976152650443	-0.2268173169509518	-0.2255684883521463	0.230630726031415	0.2306307260314378	-0.1468201498326144	-0.1663149543908205	0.09477703117859346	0.0915709704590346	-0.3561629635817751	-0.1206888997418181	-0.06693518874134861	0.9171743581021939	-0.009347674772623596	0.2054821500098439	-0.2592161128676011	0.611256574849223	0.6112565748492316	0.1306173622736166	-0.02866208836913126	0.105964310350345	0.02022673355298454	0.09370939266218355	-0.03470614058730143	-0.004163847806989171	-0.2180504185123931	0.1328466418339785	-0.07633496907283881	-0.03374800803472692	11.96444533639503	31.02854493829619	-5.194861685076149	-1.803376538866643	-438.0638910947653	-45.7586084144922	-26.21417582159369	-4.134332523492383	-1.370329622681359	-0.8845613464098568	10.4669405988263	-0.1212628494912849	2.245725863568521	-2.46407583380573	6.858143219451896	6.858143219451718	1.328445506566893	-0.3189821357617334	1.120399216825832	0.1901732935095744	-3.127728493470912e-08	5.312920196116612e-07	-7.524037678610272e-08	8.880297649392362e-08	-6.575301363657462e-07	9.117388753639987e-08	9.636247673057057e-08
